opsz144_wght1000.ufo
<glyph name="zero" format="2">
	<unicode hex="0030"/>
	<advance width="1216"/>
	<outline>
		<contour>
			<point x="75.0009765625" y="748.4637451172" type="qcurve" smooth="yes"/>
			<point x="75.0009765625" y="1144.6165771484"/>
			<point x="388.1732788086" y="1506.2844238281"/>
			<point x="611.3343505859" y="1506.2844238281" type="qcurve" smooth="yes"/>
			<point x="834.1931152344" y="1506.2844238281"/>
			<point x="1140.8926391602" y="1147.560546875"/>
			<point x="1140.8926391602" y="748.4077148438" type="qcurve" smooth="yes"/>
			<point x="1140.8926391602" y="356.0307617188"/>
			<point x="839.4968261719" y="-26.4689941406"/>
			<point x="613.1094360352" y="-26.4689941406" type="qcurve" smooth="yes"/>
			<point x="397.4755859375" y="-26.4689941406"/>
			<point x="75.0009765625" y="338.5631103516"/>
		</contour>
		<contour>
			<point x="278.5595703125" y="767.0994873047" type="qcurve" smooth="yes"/>
			<point x="259" y="481"/>
			<point x="436.5539550781" y="87.6828613281"/>
			<point x="609.3343505859" y="87.6828613281" type="qcurve" smooth="yes"/>
			<point x="779.1147460938" y="87.6828613281"/>
			<point x="917" y="447"/>
			<point x="937.3340454102" y="755.4637451172" type="qcurve" smooth="yes"/>
			<point x="917" y="1027"/>
			<point x="771.889831543" y="1383.3251953125"/>
			<point x="607.1094360352" y="1383.3251953125" type="qcurve" smooth="yes"/>
			<point x="445.3290405273" y="1383.3251953125"/>
			<point x="259" y="1060"/>
		</contour>
	</outline>
</glyph>
<glyph name="one" format="2">
	<unicode hex="0031"/>
	<advance width="872"/>
	<outline>
		<contour>
			<point x="147.4001464844" y="0" type="line"/>
			<point x="147.4001464844" y="94.0004882812" type="line"/>
			<point x="405.3970947266" y="129.0004882812" type="line"/>
			<point x="405.3970947266" y="748.9572753906" type="line"/>
			<point x="400.3970947266" y="1305.0695800781" type="line"/>
			<point x="110.1376953125" y="1347.5698242188" type="line"/>
			<point x="110.1376953125" y="1458.3757324219" type="line"/>
			<point x="562.9200439453" y="1494.107421875" type="line"/>
			<point x="589.6890869141" y="1461.8386230469" type="line"/>
			<point x="580.6890869141" y="747.9572753906" type="line"/>
			<point x="580.6890869141" y="129.0004882812" type="line"/>
			<point x="827.6860351562" y="94.0004882812" type="line"/>
			<point x="827.6860351562" y="0" type="line"/>
		</contour>
	</outline>
</glyph>
<glyph name="two" format="2">
	<unicode hex="0032"/>
	<advance width="1123"/>
	<outline>
		<contour>
			<point x="66.892578125" y="-0.5769042969" type="line"/>
			<point x="66.892578125" y="33.134765625" type="line"/>
			<point x="68.1948242188" y="148.3368530273"/>
			<point x="307.6326293945" y="408.2662353516"/>
			<point x="461.1028442383" y="508.4575195312" type="qcurve" smooth="yes"/>
			<point x="602.5725708008" y="594.3750610352"/>
			<point x="777.0694580078" y="891.8422851562"/>
			<point x="777.0694580078" y="1035.275390625" type="qcurve" smooth="yes"/>
			<point x="777.0694580078" y="1187.4881591797"/>
			<point x="620.141418457" y="1276.1713867188"/>
			<point x="498.7484741211" y="1276.1713867188" type="qcurve" smooth="yes"/>
			<point x="413.1766357422" y="1276.1713867188"/>
			<point x="234.7200317383" y="1186.301574707"/>
			<point x="193.2758789062" y="1113.5704345703" type="qcurve"/>
			<point x="107.892578125" y="1245.9517822266" type="line"/>
			<point x="170.7117919922" y="1338.9075927734"/>
			<point x="432.4456787109" y="1507.2844238281"/>
			<point x="649.0227050781" y="1507.2844238281" type="qcurve" smooth="yes"/>
			<point x="756.626159668" y="1507.2844238281"/>
			<point x="999.1983642578" y="1310.44140625"/>
			<point x="1004.1983642578" y="1107.5067138672" type="qcurve" smooth="yes"/>
			<point x="1010.1983642578" y="880.6380615234"/>
			<point x="678.2364501953" y="571.9285888672"/>
			<point x="587.2510375977" y="514.2426757812" type="qcurve" smooth="yes"/>
			<point x="359.3835449219" y="395.8040771484"/>
			<point x="178.4281005859" y="182.8068847656"/>
			<point x="165.5144042969" y="82.3498535156" type="qcurve"/>
			<point x="167.5144042969" y="73.0322265625" type="line"/>
			<point x="1050.6638793945" y="73.0322265625" type="line"/>
			<point x="1050.6638793945" y="-0.5769042969" type="line"/>
		</contour>
	</outline>
</glyph>
<glyph name="three" format="2">
	<unicode hex="0033"/>
	<advance width="1174"/>
	<outline>
		<contour>
			<point x="9.8115234375" y="168" type="qcurve"/>
			<point x="99.5463867188" y="313.6904296875" type="line"/>
			<point x="131.5509033203" y="277.3911132812"/>
			<point x="305.7406616211" y="155.998046875"/>
			<point x="451.1948242188" y="155.998046875" type="qcurve" smooth="yes"/>
			<point x="620.477722168" y="155.998046875"/>
			<point x="800.0389404297" y="340.0311279297"/>
			<point x="800.0389404297" y="486.7778320312" type="qcurve" smooth="yes"/>
			<point x="800.0389404297" y="633.8137207031"/>
			<point x="602.3583984375" y="752.3116455078"/>
			<point x="399.1836547852" y="750.5809326172" type="qcurve" smooth="yes"/>
			<point x="328.0166625977" y="750.5809326172" type="line"/>
			<point x="286.4211425781" y="881.75390625" type="line"/>
			<point x="386.3682250977" y="882.5289916992" type="line" smooth="yes"/>
			<point x="533.0793457031" y="879.4613037109"/>
			<point x="737.3439331055" y="994.4095458984"/>
			<point x="734.3439331055" y="1116.4632568359" type="qcurve" smooth="yes"/>
			<point x="732.3439331055" y="1216.7116699219"/>
			<point x="595.9275512695" y="1308.4346923828"/>
			<point x="483.7358398438" y="1308.4346923828" type="qcurve" smooth="yes"/>
			<point x="353.0003662109" y="1308.4346923828"/>
			<point x="222.7307739258" y="1204.0112915039"/>
			<point x="173.5789794922" y="1136.6759033203" type="qcurve"/>
			<point x="90.1726074219" y="1293.2854003906" type="line"/>
			<point x="146.2693481445" y="1374.389465332"/>
			<point x="384.4587402344" y="1505.1723632812"/>
			<point x="573.1246948242" y="1505.1723632812" type="qcurve" smooth="yes"/>
			<point x="756.5996704102" y="1505.1723632812"/>
			<point x="992.739440918" y="1359.8532714844"/>
			<point x="992.739440918" y="1218.9620361328" type="qcurve" smooth="yes"/>
			<point x="992.739440918" y="1073.3627929688"/>
			<point x="817.7825317383" y="888.5251464844"/>
			<point x="614.0734863281" y="858.4359130859" type="qcurve"/>
			<point x="614.0734863281" y="851.5479736328" type="line"/>
			<point x="820.7825317383" y="839.6832275391"/>
			<point x="1077.0001831055" y="659.7331542969"/>
			<point x="1077.0001831055" y="467.4598388672" type="qcurve" smooth="yes"/>
			<point x="1077.0001831055" y="269.9622802734"/>
			<point x="795.7673339844" y="-25.0766601562"/>
			<point x="530.5185546875" y="-25.0766601562" type="qcurve" smooth="yes"/>
			<point x="317.7972412109" y="-25.0766601562"/>
			<point x="16.7581176758" y="130.6471557617"/>
		</contour>
	</outline>
</glyph>
<glyph name="four" format="2">
	<unicode hex="0034"/>
	<advance width="1338"/>
	<outline>
		<contour>
			<point x="-0.9453125" y="494.7416992188" type="line"/>
			<point x="955.9192504883" y="1465.2088623047" type="line"/>
			<point x="1244.4456176758" y="1445.2088623047" type="line"/>
			<point x="1028.2112426758" y="1395.2088623047" type="line"/>
			<point x="1023.2112426758" y="496.9348144531" type="line"/>
			<point x="1022.2112426758" y="129.0004882812" type="line"/>
			<point x="1228.3945922852" y="94.0004882812" type="line"/>
			<point x="1228.3945922852" y="0" type="line"/>
			<point x="632.798034668" y="0" type="line"/>
			<point x="632.798034668" y="94.0004882812" type="line"/>
			<point x="855.9192504883" y="129.0004882812" type="line"/>
			<point x="848.9192504883" y="499.9348144531" type="line"/>
			<point x="848.9192504883" y="1223.7461547852" type="line"/>
			<point x="220.186706543" y="569.3922119141" type="line"/>
			<point x="217.186706543" y="554.3922119141" type="line"/>
			<point x="1349" y="558.7416992188" type="line"/>
			<point x="1349" y="422.8203125" type="line"/>
			<point x="10.0546875" y="391.8203125" type="line"/>
		</contour>
	</outline>
</glyph>
<glyph name="five" format="2">
	<unicode hex="0035"/>
	<advance width="1154"/>
	<outline>
		<contour>
			<point x="-26.7021484375" y="84" type="qcurve"/>
			<point x="53.6720581055" y="223.9002685547" type="line"/>
			<point x="133.5939331055" y="191.854309082"/>
			<point x="316.8280029297" y="150.0363769531"/>
			<point x="450.0186767578" y="150.0363769531" type="qcurve" smooth="yes"/>
			<point x="616.2223510742" y="150.0363769531"/>
			<point x="852.9625244141" y="325.8350830078"/>
			<point x="852.9625244141" y="495.6563720703" type="qcurve" smooth="yes"/>
			<point x="852.9625244141" y="626.5720214844"/>
			<point x="591.4851074219" y="720.0321044922"/>
			<point x="338.2838745117" y="720.0321044922" type="qcurve" smooth="yes"/>
			<point x="224.9457397461" y="720.0321044922" type="line"/>
			<point x="198.6386108398" y="750.6040039062" type="line"/>
			<point x="229.6386108398" y="1453.8889160156" type="line"/>
			<point x="256.6386108398" y="1486.8889160156" type="line"/>
			<point x="1015.5424194336" y="1486.8889160156" type="line"/>
			<point x="1010.3353271484" y="1396.8937988281" type="line"/>
			<point x="380.2655639648" y="1396.8937988281" type="line"/>
			<point x="365.2655639648" y="1378.8937988281" type="line"/>
			<point x="328.9059448242" y="873.4709472656" type="line"/>
			<point x="580.239074707" y="946.4423828125" type="line"/>
			<point x="802.2891845703" y="960.2720336914"/>
			<point x="1065.6099853516" y="686.6431274414"/>
			<point x="1065.6099853516" y="460.3452148438" type="qcurve" smooth="yes"/>
			<point x="1065.6099853516" y="233.8502197266"/>
			<point x="759.6563720703" y="-23.0766601562"/>
			<point x="532.2421875" y="-23.0766601562" type="qcurve" smooth="yes"/>
			<point x="344.6616821289" y="-23.0766601562"/>
			<point x="39.7939453125" y="50.2269897461"/>
		</contour>
	</outline>
</glyph>
<glyph name="six" format="2">
	<unicode hex="0036"/>
	<advance width="1183"/>
	<outline>
		<contour>
			<point x="80.0009765625" y="644.3409423828" type="qcurve" smooth="yes"/>
			<point x="80.0009765625" y="1082.1539916992"/>
			<point x="555.3869628906" y="1557.6680908203"/>
			<point x="979.7733154297" y="1511.107421875" type="qcurve"/>
			<point x="955.55859375" y="1336.5805664062" type="line"/>
			<point x="648.0789794922" y="1380.6973266602"/>
			<point x="285.1669921875" y="977.3076171875"/>
			<point x="285.1669921875" y="622.3409423828" type="qcurve" smooth="yes"/>
			<point x="285.1669921875" y="466.4973754883"/>
			<point x="482.8153076172" y="92.3137207031"/>
			<point x="648.595703125" y="92.3137207031" type="qcurve" smooth="yes"/>
			<point x="817.3760986328" y="92.3137207031"/>
			<point x="1000.6438598633" y="343.1580810547"/>
			<point x="1000.6438598633" y="437.2535400391" type="qcurve" smooth="yes"/>
			<point x="1000.6438598633" y="577.3535766602"/>
			<point x="859.4411621094" y="781.2835693359"/>
			<point x="706.9295654297" y="781.2835693359" type="qcurve" smooth="yes"/>
			<point x="627.018371582" y="781.2835693359"/>
			<point x="509.5114746094" y="750.8428955078"/>
			<point x="489.6833496094" y="742.9890136719" type="qcurve"/>
			<point x="456.1806640625" y="834.8857421875" type="line"/>
			<point x="451.419128418" y="850.1163330078"/>
			<point x="576.0308227539" y="917.5954589844"/>
			<point x="648.3410644531" y="917.5954589844" type="qcurve" smooth="yes"/>
			<point x="865.9595336914" y="917.5954589844"/>
			<point x="1139.8616333008" y="702.724609375"/>
			<point x="1139.8616333008" y="430.5297241211" type="qcurve" smooth="yes"/>
			<point x="1139.8616333008" y="228.8503417969"/>
			<point x="821.2474365234" y="-21.6843261719"/>
			<point x="623.9305419922" y="-21.6843261719" type="qcurve" smooth="yes"/>
			<point x="415.2030639648" y="-21.6843261719"/>
			<point x="80.0009765625" y="328.9765625"/>
		</contour>
	</outline>
</glyph>
<glyph name="seven" format="2">
	<unicode hex="0037"/>
	<advance width="1202"/>
	<outline>
		<contour>
			<point x="24.7517089844" y="1174.4208984375" type="line"/>
			<point x="9.0633544922" y="1486.8889160156" type="line"/>
			<point x="1142.7040405273" y="1486.8889160156" type="line"/>
			<point x="1142.7040405273" y="1470.1467285156" type="line"/>
			<point x="710.1565551758" y="681.658203125" type="line"/>
			<point x="362.4185180664" y="-5.9379882812" type="line"/>
			<point x="275.8247680664" y="-5.9379882812" type="line"/>
			<point x="275.8247680664" y="35.0620117188" type="line"/>
			<point x="600.2131958008" y="681.8790283203" type="line"/>
			<point x="1033.3512573242" y="1395.3752441406" type="line"/>
			<point x="1018.8180541992" y="1408.4270019531" type="line"/>
			<point x="208.8637695312" y="1408.4270019531" type="line"/>
			<point x="138.708984375" y="1174.4208984375" type="line"/>
		</contour>
	</outline>
</glyph>
<glyph name="eight" format="2">
	<unicode hex="0038"/>
	<advance width="1193"/>
	<outline>
		<contour>
			<point x="33.0678710938" y="369.6080322266" type="qcurve" smooth="yes"/>
			<point x="33.0678710938" y="543.4967651367"/>
			<point x="372.5048217773" y="786.533203125"/>
			<point x="636.6336669922" y="851.3137207031" type="qcurve"/>
			<point x="730.1705932617" y="807.5678710938" type="line"/>
			<point x="611.4954223633" y="743.0305175781"/>
			<point x="457.2868652344" y="496.0955810547"/>
			<point x="457.2868652344" y="341.3587646484" type="qcurve" smooth="yes"/>
			<point x="457.2868652344" y="189.7994384766"/>
			<point x="530.2191162109" y="81.3752441406"/>
			<point x="640.3579101562" y="81.3752441406" type="qcurve" smooth="yes"/>
			<point x="747.5452880859" y="81.3752441406"/>
			<point x="978.6099853516" y="219.8897705078"/>
			<point x="978.6099853516" y="371.9049072266" type="qcurve" smooth="yes"/>
			<point x="978.6099853516" y="519.2564086914"/>
			<point x="842.8854980469" y="707.9227294922"/>
			<point x="735.4776000977" y="732.9069824219" type="qcurve" smooth="yes"/>
			<point x="431.3795166016" y="873.3223876953"/>
			<point x="195.4591064453" y="1037.4527587891"/>
			<point x="199.4591064453" y="1245.1430664062" type="qcurve" smooth="yes"/>
			<point x="203.4591064453" y="1355.6943359375"/>
			<point x="388.6661376953" y="1498.6943359375"/>
			<point x="546.0596923828" y="1498.6943359375" type="qcurve" smooth="yes"/>
			<point x="744.2003173828" y="1498.6943359375"/>
			<point x="1020.3539428711" y="1357.7299804688"/>
			<point x="1020.3539428711" y="1200.9309082031" type="qcurve" smooth="yes"/>
			<point x="1020.3539428711" y="1085.1672363281"/>
			<point x="782.9762573242" y="867.3074951172"/>
			<point x="612.4871826172" y="796.1708984375" type="qcurve"/>
			<point x="496.4096069336" y="836.8502197266" type="line"/>
			<point x="570.8550415039" y="917.1849365234"/>
			<point x="650.7145385742" y="1106.5650634766"/>
			<point x="651.2914428711" y="1199.1315917969" type="qcurve" smooth="yes"/>
			<point x="651.868347168" y="1312.7056884766"/>
			<point x="568.4384765625" y="1388.3292236328"/>
			<point x="503.7904052734" y="1388.3292236328" type="qcurve" smooth="yes"/>
			<point x="431.4170532227" y="1388.3292236328"/>
			<point x="275.5880126953" y="1282.0112304688"/>
			<point x="275.5880126953" y="1217.9749755859" type="qcurve" smooth="yes"/>
			<point x="275.5880126953" y="1081.4033813477"/>
			<point x="485.4105834961" y="915.9456787109"/>
			<point x="727.3675537109" y="817.5512695312" type="qcurve" smooth="yes"/>
			<point x="851.638671875" y="782.4290771484"/>
			<point x="1144.6646728516" y="568.7653808594"/>
			<point x="1144.6646728516" y="376.3137207031" type="qcurve" smooth="yes"/>
			<point x="1144.6646728516" y="195.6169433594"/>
			<point x="886.1108398438" y="-23.4689941406"/>
			<point x="627.8656005859" y="-23.4689941406" type="qcurve" smooth="yes"/>
			<point x="324.5520629883" y="-23.4689941406"/>
			<point x="33.0678710938" y="188.9936523438"/>
		</contour>
	</outline>
</glyph>
<glyph name="nine" format="2">
	<unicode hex="0039"/>
	<advance width="1185"/>
	<outline>
		<contour>
			<point x="70.4331054688" y="1073.9807128906" type="qcurve" smooth="yes"/>
			<point x="70.4331054688" y="1271.5727539062"/>
			<point x="377.0477294922" y="1508.0322265625"/>
			<point x="563.9385375977" y="1508.0322265625" type="qcurve" smooth="yes"/>
			<point x="735.7129516602" y="1508.0322265625"/>
			<point x="1107.9685058594" y="1187.7434082031"/>
			<point x="1107.9685058594" y="870.0821533203" type="qcurve" smooth="yes"/>
			<point x="1107.9685058594" y="410.603515625"/>
			<point x="597.5610961914" y="-71.6356201172"/>
			<point x="169.8035888672" y="-24.456237793" type="qcurve"/>
			<point x="201.5684814453" y="148.3515625" type="line"/>
			<point x="521.4916381836" y="107.5575561523"/>
			<point x="903.9854736328" y="476.0594482422"/>
			<point x="901.9854736328" y="818.0261230469" type="qcurve" smooth="yes"/>
			<point x="900.9854736328" y="1053.8157958984"/>
			<point x="713.42578125" y="1395.0341796875"/>
			<point x="533.5405273438" y="1395.0341796875" type="qcurve" smooth="yes"/>
			<point x="392.9697265625" y="1395.0341796875"/>
			<point x="219.8338623047" y="1191.0791015625"/>
			<point x="219.8338623047" y="1084.1695556641" type="qcurve" smooth="yes"/>
			<point x="219.8338623047" y="952.3950195312"/>
			<point x="383.0228271484" y="761.2080688477"/>
			<point x="516.9267578125" y="761.2080688477" type="qcurve" smooth="yes"/>
			<point x="574.3694458008" y="761.2080688477"/>
			<point x="682.2951049805" y="803.6494140625"/>
			<point x="703.0090332031" y="808.4752807617" type="qcurve"/>
			<point x="726.6798095703" y="720.0557250977" type="line"/>
			<point x="736.9556274414" y="716.0690917969"/>
			<point x="630.171081543" y="639.1345214844"/>
			<point x="510.5068359375" y="639.8308105469" type="qcurve" smooth="yes"/>
			<point x="341.2463378906" y="641.9196777344"/>
			<point x="70.4331054688" y="856.7561035156"/>
		</contour>
	</outline>
</glyph>
<glyph name="A" format="2">
	<unicode hex="0041"/>
	<advance width="1515"/>
	<outline>
		<contour>
			<point x="-65.7318115234" y="0" type="line"/>
			<point x="-65.7318115234" y="99.0002441406" type="line"/>
			<point x="158.3406982422" y="133.0002441406" type="line"/>
			<point x="340.8929443359" y="593.0335083008" type="line"/>
			<point x="713.6028442383" y="1490.1916503906" type="line"/>
			<point x="856.3340454102" y="1490.1916503906" type="line"/>
			<point x="1220.4802856445" y="554.1998291016" type="line"/>
			<point x="1364.3090209961" y="133.0002441406" type="line"/>
			<point x="1553.9202270508" y="99.0002441406" type="line"/>
			<point x="1553.9202270508" y="0" type="line"/>
			<point x="1021.8892211914" y="0" type="line"/>
			<point x="1021.8892211914" y="99.0002441406" type="line"/>
			<point x="1196.8465576172" y="133.0002441406" type="line"/>
			<point x="1048.1524047852" y="559" type="line"/>
			<point x="820.0487060547" y="1135.2777099609" type="line"/>
			<point x="783.8305053711" y="1230.5773925781" type="line"/>
			<point x="783.8305053711" y="1230.5773925781" type="line"/>
			<point x="749.7596435547" y="1134.2454833984" type="line"/>
			<point x="480.0679321289" y="560.1678466797" type="line"/>
			<point x="329.4459838867" y="134.0002441406" type="line"/>
			<point x="576.7110595703" y="99.0002441406" type="line"/>
			<point x="576.7110595703" y="0" type="line"/>
		</contour>
		<contour>
			<point x="740" y="552" type="line"/>
			<point x="855.6287231445" y="595.6450195312" type="line"/>
			<point x="898.6919555664" y="468.8403320312" type="line"/>
			<point x="740" y="448" type="line"/>
		</contour>
		<contour>
			<point x="359.9225463867" y="468.8403320312" type="line"/>
			<point x="405.5525512695" y="594.12890625" type="line"/>
			<point x="668.3609619141" y="614.7744140625" type="line"/>
			<point x="668.3609619141" y="489.6806640625" type="line"/>
		</contour>
	</outline>
	<anchor name="bottom" x="735" y="0"/>
	<anchor name="ogonek" x="1318" y="0"/>
	<anchor name="tonos" x="492" y="1500"/>
	<anchor name="top" x="753" y="1500"/>
</glyph>
<glyph name="C" format="2">
	<unicode hex="0043"/>
	<advance width="1608"/>
	<outline>
		<contour>
			<point x="79" y="732" type="qcurve" smooth="yes"/>
			<point x="79" y="1097.6457519531"/>
			<point x="486.3923950195" y="1521.1149902344"/>
			<point x="792.9396362305" y="1521.1149902344" type="qcurve" smooth="yes"/>
			<point x="943.2663574219" y="1521.1149902344"/>
			<point x="1231.0770874023" y="1457.4881591797"/>
			<point x="1308.3827514648" y="1416" type="qcurve"/>
			<point x="1367.3037719727" y="1489" type="line"/>
			<point x="1482.9937744141" y="1489" type="line"/>
			<point x="1482.9937744141" y="912.9331054688" type="line"/>
			<point x="1360.9484863281" y="912.9331054688" type="line"/>
			<point x="1303.2315673828" y="1120.5502929688" type="line" smooth="yes"/>
			<point x="1264.853515625" y="1265.1239013672"/>
			<point x="1000.6101074219" y="1398.6975097656"/>
			<point x="810.5409545898" y="1398.6975097656" type="qcurve" smooth="yes"/>
			<point x="548.1420288086" y="1398.6975097656"/>
			<point x="276.3940429688" y="1050.5433349609"/>
			<point x="276.3940429688" y="744" type="qcurve" smooth="yes"/>
			<point x="276.3940429688" y="486.0754394531"/>
			<point x="629.6861572266" y="139.6896972656"/>
			<point x="915.5767822266" y="139.6896972656" type="qcurve" smooth="yes"/>
			<point x="1132.7667236328" y="139.6896972656"/>
			<point x="1414.4161376953" y="255.9545898438"/>
			<point x="1491.7052001953" y="326.2568359375" type="qcurve"/>
			<point x="1580.1553955078" y="245" type="line"/>
			<point x="1470.0057983398" y="133.7463378906"/>
			<point x="1069.5409545898" y="-17.1149902344"/>
			<point x="870.6458129883" y="-17.1149902344" type="qcurve" smooth="yes"/>
			<point x="562.8143310547" y="-17.1149902344"/>
			<point x="79" y="372.4463500977"/>
		</contour>
	</outline>
	<anchor name="bottom" x="836" y="0"/>
	<anchor name="top" x="836" y="1500"/>
</glyph>
<glyph name="D" format="2">
	<unicode hex="0044"/>
	<advance width="1600"/>
	<outline>
		<contour>
			<point x="82.9992675781" y="0" type="line"/>
			<point x="82.9992675781" y="99.0002441406" type="line"/>
			<point x="289.9943847656" y="138.0002441406" type="line"/>
			<point x="291.9943847656" y="759" type="line"/>
			<point x="289.9943847656" y="1353.8397216797" type="line"/>
			<point x="82.9992675781" y="1390.8397216797" type="line"/>
			<point x="82.9992675781" y="1500" type="line"/>
			<point x="756.4114990234" y="1500" type="line" smooth="yes"/>
			<point x="1113.944519043" y="1502"/>
			<point x="1520.1315917969" y="1152"/>
			<point x="1520.1315917969" y="777" type="qcurve" smooth="yes"/>
			<point x="1520.1315917969" y="409"/>
			<point x="1095.3143310547" y="0"/>
			<point x="726.2537841797" y="0" type="qcurve" smooth="yes"/>
		</contour>
		<contour>
			<point x="467.2890014648" y="115.740234375" type="line"/>
			<point x="495.9283447266" y="114.2563476562"/>
			<point x="642.1950073242" y="111.740234375"/>
			<point x="742.2526855469" y="111.740234375" type="qcurve" smooth="yes"/>
			<point x="1036.08984375" y="111.740234375"/>
			<point x="1314.2719726562" y="584.7990722656"/>
			<point x="1316.7370605469" y="774" type="qcurve" smooth="yes"/>
			<point x="1317.3533325195" y="986.1226806641"/>
			<point x="1010.3357543945" y="1387.0986328125"/>
			<point x="712.1482543945" y="1387.0986328125" type="qcurve" smooth="yes"/>
			<point x="648.264831543" y="1387.0986328125"/>
			<point x="501.3934326172" y="1380.5825195312"/>
			<point x="466.2890014648" y="1376.0986328125" type="qcurve"/>
			<point x="464.2890014648" y="752" type="line"/>
		</contour>
	</outline>
	<anchor name="bottom" x="686" y="0"/>
	<anchor name="center" x="438" y="754"/>
	<anchor name="top" x="686" y="1500"/>
	<anchor name="liga" x="1590" y="0"/>
</glyph>
<glyph name="H" format="2">
	<unicode hex="0048"/>
	<advance width="1739"/>
	<outline>
		<contour>
			<point x="82.9992675781" y="0" type="line"/>
			<point x="82.9992675781" y="99.0002441406" type="line"/>
			<point x="289.9943847656" y="134.0002441406" type="line"/>
			<point x="291.9943847656" y="775" type="line"/>
			<point x="289.9943847656" y="1356.8397216797" type="line"/>
			<point x="82.9992675781" y="1390.8397216797" type="line"/>
			<point x="82.9992675781" y="1500" type="line"/>
			<point x="674.2841186523" y="1500" type="line"/>
			<point x="674.2841186523" y="1390.8397216797" type="line"/>
			<point x="469.2890014648" y="1356.8397216797" type="line"/>
			<point x="467.2890014648" y="780" type="line"/>
			<point x="469.2890014648" y="134.0002441406" type="line"/>
			<point x="674.2841186523" y="99.0002441406" type="line"/>
			<point x="674.2841186523" y="0" type="line"/>
		</contour>
		<contour>
			<point x="227.2890014648" y="712.4848632812" type="line"/>
			<point x="227.2890014648" y="844.9990234375" type="line"/>
			<point x="866.9019165039" y="837.8701171875" type="line"/>
			<point x="1525.6672973633" y="844.9990234375" type="line"/>
			<point x="1525.6672973633" y="712.4848632812" type="line"/>
			<point x="866.9019165039" y="712.4848632812" type="line"/>
		</contour>
		<contour>
			<point x="1064.3495995306" y="0" type="line"/>
			<point x="1064.3495995306" y="99.0002441406" type="line"/>
			<point x="1269.3447167181" y="134.0002441406" type="line"/>
			<point x="1271.6672973633" y="780" type="line"/>
			<point x="1269.3447167181" y="1356.8397216797" type="line"/>
			<point x="1064.3495995306" y="1390.8397216797" type="line"/>
			<point x="1064.3495995306" y="1500" type="line"/>
			<point x="1655.6344506048" y="1500" type="line"/>
			<point x="1655.6344506048" y="1390.8397216797" type="line"/>
			<point x="1448.6393334173" y="1356.8397216797" type="line"/>
			<point x="1446.6393334173" y="775" type="line"/>
			<point x="1448.6393334173" y="134.0002441406" type="line"/>
			<point x="1655.6344506048" y="99.0002441406" type="line"/>
			<point x="1655.6344506048" y="0" type="line"/>
		</contour>
	</outline>
	<anchor name="bottom" x="870" y="0"/>
	<anchor name="center" x="870" y="1079"/>
	<anchor name="top" x="870" y="1500"/>
	<anchor name="tonos" x="0" y="1500"/>
	<anchor name="cy_descender" x="1658" y="100"/>
</glyph>
<glyph name="J" format="2">
	<unicode hex="004A"/>
	<advance width="770"/>
	<outline>
		<contour>
			<point x="58.7349853516" y="-212.3840942383" type="qcurve"/>
			<point x="65.7349853516" y="-108.3837890625" type="line"/>
			<point x="79.4300537109" y="-105.8637695312"/>
			<point x="107.5092773438" y="-101.143737793"/>
			<point x="143.1311035156" y="-99.8237304688" type="qcurve" smooth="yes"/>
			<point x="214.7589111328" y="-97.1837158203"/>
			<point x="319.9233398438" y="-59.0239868164"/>
			<point x="319.9233398438" y="57.9760131836" type="qcurve" smooth="yes"/>
			<point x="322.9233398438" y="674" type="line"/>
			<point x="320.9233398438" y="1356.8397216797" type="line"/>
			<point x="75.6588745117" y="1390.8397216797" type="line"/>
			<point x="75.6588745117" y="1500" type="line"/>
			<point x="711.582824707" y="1500" type="line"/>
			<point x="711.582824707" y="1398.3239746094" type="line"/>
			<point x="506.8180541992" y="1364.3239746094" type="line"/>
			<point x="505.8180541992" y="674" type="line"/>
			<point x="502.8180541992" y="171.9760131836" type="line" smooth="yes"/>
			<point x="498.875793457" y="-2.0239868164"/>
			<point x="338.8555297852" y="-215.3840332031"/>
			<point x="224.1403198242" y="-215.3840332031" type="qcurve" smooth="yes"/>
			<point x="165.1350708008" y="-215.3840332031"/>
			<point x="100.8142089844" y="-214.9840698242"/>
		</contour>
	</outline>
	<anchor name="bottom" x="376" y="-208"/>
	<anchor name="top" x="376" y="1500"/>
	<anchor name="_liga" x="0" y="0"/>
</glyph>
<glyph name="L" format="2">
	<unicode hex="004C"/>
	<advance width="1360"/>
	<outline>
		<contour>
			<point x="124.9992675781" y="0" type="line"/>
			<point x="124.9992675781" y="99.0002441406" type="line"/>
			<point x="289.9943847656" y="134.0002441406" type="line"/>
			<point x="291.9943847656" y="754" type="line"/>
			<point x="289.9943847656" y="1356.8397216797" type="line"/>
			<point x="82.9992675781" y="1390.8397216797" type="line"/>
			<point x="82.9992675781" y="1500" type="line"/>
			<point x="692.2451171875" y="1500" type="line"/>
			<point x="692.2451171875" y="1390.8397216797" type="line"/>
			<point x="470.2890014648" y="1356.8397216797" type="line"/>
			<point x="469.2890014648" y="754" type="line"/>
			<point x="471.2890014648" y="151.1274414062" type="line"/>
			<point x="528.2890014648" y="118.1274414062" type="line"/>
			<point x="1059.6045532227" y="118.1274414062" type="line"/>
			<point x="1213.6045532227" y="530.0043945312" type="line"/>
			<point x="1330.6190795898" y="530.0043945312" type="line"/>
			<point x="1284.4257202148" y="0" type="line"/>
		</contour>
	</outline>
	<anchor name="bottom" x="705" y="0"/>
	<anchor name="centerright" x="928" y="750"/>
	<anchor name="top" x="632" y="1500"/>
	<anchor name="topright" x="784" y="1001"/>
	<anchor name="center" x="378" y="750"/>
	<anchor name="liga" x="1264" y="0"/>
</glyph>
<glyph name="Q" format="2">
	<unicode hex="0051"/>
	<advance width="1640"/>
	<outline>
		<contour>
			<point x="80" y="750.0813598633" type="qcurve" smooth="yes"/>
			<point x="80" y="1104.8249511719"/>
			<point x="552.3598022461" y="1522.0766601562"/>
			<point x="827.2974853516" y="1522.0766601562" type="qcurve" smooth="yes"/>
			<point x="1119.3167724609" y="1522.0766601562"/>
			<point x="1578.6763305664" y="1124.0574951172"/>
			<point x="1578.6763305664" y="772" type="qcurve" smooth="yes"/>
			<point x="1578.6763305664" y="398.9425048828"/>
			<point x="1090.3746948242" y="-2.9188232422"/>
			<point x="825.2973632812" y="-2.9188232422" type="qcurve" smooth="yes"/>
			<point x="515.2364501953" y="-2.9188232422"/>
			<point x="80" y="407.6632080078"/>
		</contour>
		<contour>
			<point x="270.3940429688" y="757.9186401367" type="qcurve" smooth="yes"/>
			<point x="270.3940429688" y="475.8325805664"/>
			<point x="551.8845214844" y="108.4664306641"/>
			<point x="836.8974609375" y="107.9503173828" type="qcurve" smooth="yes"/>
			<point x="1125.4365234375" y="107.4342041016"/>
			<point x="1389.2822875977" y="464.8773193359"/>
			<point x="1389.2822875977" y="762" type="qcurve" smooth="yes"/>
			<point x="1389.2822875977" y="1046.0860595703"/>
			<point x="1087.2338256836" y="1396.43359375"/>
			<point x="822.3788452148" y="1396.43359375" type="qcurve" smooth="yes"/>
			<point x="551.3837280273" y="1396.43359375"/>
			<point x="270.3940429688" y="1053.938659668"/>
		</contour>
		<contour>
			<point x="595.1353759766" y="-45.7999267578" type="qcurve"/>
			<point x="1268.5083618164" y="-233.2886962891" type="line"/>
			<point x="1349.4461669922" y="-244.6828613281"/>
			<point x="1458.4529418945" y="-169.2825317383"/>
			<point x="1509.469543457" y="-75.8303833008" type="qcurve"/>
			<point x="1584.758605957" y="-107.5715942383" type="line"/>
			<point x="1527.8088378906" y="-277.9107666016"/>
			<point x="1373.3052368164" y="-389.0252075195"/>
			<point x="1253.9785766602" y="-390.1564941406" type="qcurve"/>
			<point x="611.2794189453" y="-215.0633544922" type="line"/>
			<point x="512.8463745117" y="-204.5467529297"/>
			<point x="356.4193115234" y="-241.7983398438"/>
			<point x="274.1938476562" y="-303.5974121094" type="qcurve"/>
			<point x="210.8076171875" y="-260.7595214844" type="line"/>
			<point x="300.8264160156" y="-166.9118041992"/>
			<point x="566.799987793" y="-22.5424804688"/>
		</contour>
		<contour>
			<point x="528.754699707" y="-48.7379150391" type="line"/>
			<point x="796.1171875" y="266.45703125" type="line"/>
			<point x="875.8305664062" y="177.1938476562" type="line"/>
			<point x="646.6683959961" y="-93.7416992188" type="line"/>
		</contour>
	</outline>
	<anchor name="bottom" x="832" y="0"/>
	<anchor name="top" x="823" y="1502"/>
</glyph>
<glyph name="S" format="2">
	<unicode hex="0053"/>
	<advance width="1065"/>
	<outline>
		<contour>
			<point x="25.1147460938" y="0" type="line"/>
			<point x="25.1147460938" y="463.6357421875" type="line"/>
			<point x="141.4992675781" y="463.6357421875" type="line"/>
			<point x="183.6203613281" y="299" type="line" smooth="yes"/>
			<point x="205.1934814453" y="237.7602539062"/>
			<point x="439.2330932617" y="106.2319335938"/>
			<point x="574.9108886719" y="106.2319335938" type="qcurve" smooth="yes"/>
			<point x="761.4523925781" y="106.2319335938"/>
			<point x="873.0521850586" y="318.8404541016"/>
			<point x="873.0521850586" y="340.3931884766" type="qcurve" smooth="yes"/>
			<point x="873.0521850586" y="466.8643798828"/>
			<point x="676.1584472656" y="633.845703125"/>
			<point x="462.9962768555" y="720.6701660156" type="qcurve" smooth="yes"/>
			<point x="270.0302734375" y="814.9945678711"/>
			<point x="81.5383300781" y="987.8646850586"/>
			<point x="81.5383300781" y="1149.9548339844" type="qcurve" smooth="yes"/>
			<point x="81.5383300781" y="1312.4169311523"/>
			<point x="311.5830688477" y="1519.1149902344"/>
			<point x="473.1030273438" y="1519.1149902344" type="qcurve" smooth="yes"/>
			<point x="594.8319091797" y="1519.1149902344"/>
			<point x="762.9065551758" y="1445.5015869141"/>
			<point x="791.8600463867" y="1415.515625" type="qcurve"/>
			<point x="833.4292602539" y="1500" type="line"/>
			<point x="929.9170532227" y="1500" type="line"/>
			<point x="929.9170532227" y="1030.6796875" type="line"/>
			<point x="802.1930541992" y="1030.6796875" type="line"/>
			<point x="777.2477416992" y="1175" type="line" smooth="yes"/>
			<point x="760.6857299805" y="1261.569152832"/>
			<point x="624.4658203125" y="1395.0847167969"/>
			<point x="465.6016235352" y="1395.0847167969" type="qcurve" smooth="yes"/>
			<point x="298.9365844727" y="1395.0847167969"/>
			<point x="232.2115478516" y="1235.9588623047"/>
			<point x="232.2115478516" y="1189.2008056641" type="qcurve" smooth="yes"/>
			<point x="232.2115478516" y="1120.4097900391"/>
			<point x="383.5442504883" y="972.7001953125"/>
			<point x="605.5916748047" y="872.578125" type="qcurve" smooth="yes"/>
			<point x="796.2077026367" y="778.8715820312"/>
			<point x="1031.3089599609" y="573.3950195312"/>
			<point x="1031.3089599609" y="400.5827026367" type="qcurve" smooth="yes"/>
			<point x="1031.3089599609" y="232.5611572266"/>
			<point x="784.4376220703" y="-13.1533203125"/>
			<point x="586.2792358398" y="-13.1533203125" type="qcurve" smooth="yes"/>
			<point x="471.5609130859" y="-13.1533203125"/>
			<point x="226.7797851562" y="45.4926757812"/>
			<point x="200.0758056641" y="96" type="qcurve"/>
			<point x="134.80859375" y="0" type="line"/>
		</contour>
	</outline>
	<anchor name="bottom" x="599" y="0"/>
	<anchor name="top" x="514" y="1500"/>
</glyph>
<glyph name="T" format="2">
	<unicode hex="0054"/>
	<advance width="1310"/>
	<outline>
		<contour>
			<point x="21.8579101562" y="1043.7133789062" type="line"/>
			<point x="21.8579101562" y="1500" type="line"/>
			<point x="1287.9939575195" y="1500" type="line"/>
			<point x="1287.9939575195" y="1043.7133789062" type="line"/>
			<point x="1178.997253418" y="1043.7133789062" type="line"/>
			<point x="1141.9982299805" y="1373.7114257812" type="line"/>
			<point x="753.3811645508" y="1373.7114257812" type="line"/>
			<point x="739.3811645508" y="1365.7114257812" type="line"/>
			<point x="742.3811645508" y="754" type="line"/>
			<point x="743.3811645508" y="134.0002441406" type="line"/>
			<point x="961.4914550781" y="99.0002441406" type="line"/>
			<point x="961.4914550781" y="0" type="line"/>
			<point x="344.283996582" y="0" type="line"/>
			<point x="344.283996582" y="99.0002441406" type="line"/>
			<point x="563.0865478516" y="134.0002441406" type="line"/>
			<point x="565.0865478516" y="754" type="line"/>
			<point x="570.0865478516" y="1365.7114257812" type="line"/>
			<point x="554.0865478516" y="1373.7114257812" type="line"/>
			<point x="156.8536376953" y="1373.7114257812" type="line"/>
			<point x="129.8546142578" y="1043.7133789062" type="line"/>
		</contour>
	</outline>
	<anchor name="bottom" x="644" y="0"/>
	<anchor name="center" x="644" y="750"/>
	<anchor name="top" x="644" y="1500"/>
	<anchor name="cy_descender" x="951" y="100"/>
</glyph>
<glyph name="W" format="2">
	<unicode hex="0057"/>
	<advance width="2001"/>
	<outline>
		<contour>
			<point x="562.9558105469" y="11.7700195312" type="line"/>
			<point x="336.9862060547" y="739.5801391602" type="line"/>
			<point x="146.319519043" y="1359.8397216797" type="line"/>
			<point x="-20.8303833008" y="1393.8397216797" type="line"/>
			<point x="-20.8303833008" y="1500" type="line"/>
			<point x="496.3369140625" y="1500" type="line"/>
			<point x="496.3369140625" y="1393.8397216797" type="line"/>
			<point x="303.2644042969" y="1359.8397216797" type="line"/>
			<point x="501.9473876953" y="762.1142578125" type="line"/>
			<point x="632.610534668" y="336.5174560547" type="line"/>
			<point x="669.5588989258" y="218.0504760742" type="line"/>
			<point x="669.5588989258" y="218.0504760742" type="line"/>
			<point x="707.4108886719" y="337.4501953125" type="line"/>
			<point x="803.3233032227" y="658.0338745117" type="line"/>
			<point x="925.1486816406" y="1022.6115112305" type="line"/>
			<point x="826.8744506836" y="1364.3597412109" type="line"/>
			<point x="672.7245483398" y="1398.3597412109" type="line"/>
			<point x="672.7245483398" y="1500" type="line"/>
			<point x="1199.4716186523" y="1500" type="line"/>
			<point x="1199.4716186523" y="1398.3597412109" type="line"/>
			<point x="1015.3217163086" y="1364.3597412109" type="line"/>
			<point x="1156.3060913086" y="933.5014038086" type="line"/>
			<point x="1319.4312744141" y="333.9368896484" type="line"/>
			<point x="1351.2829589844" y="219.6538085938" type="line"/>
			<point x="1351.2829589844" y="219.6538085938" type="line"/>
			<point x="1384.1364746094" y="334.1696166992" type="line"/>
			<point x="1553.8133544922" y="855.2293701172" type="line"/>
			<point x="1712.610534668" y="1354.8397216797" type="line"/>
			<point x="1489.4228515625" y="1393.8397216797" type="line"/>
			<point x="1489.4228515625" y="1500" type="line"/>
			<point x="2085.4365844727" y="1500" type="line"/>
			<point x="2085.4365844727" y="1393.8397216797" type="line"/>
			<point x="1847.364074707" y="1358.8397216797" type="line"/>
			<point x="1664.3186035156" y="809.5834350586" type="line"/>
			<point x="1411.9146118164" y="11.7700195312" type="line"/>
			<point x="1220.6087036133" y="11.7700195312" type="line"/>
			<point x="994.3700561523" y="805.4351196289" type="line"/>
			<point x="972.1017456055" y="875.4182128906" type="line"/>
			<point x="972.1017456055" y="875.4182128906" type="line"/>
			<point x="929.2496337891" y="705.5189819336" type="line"/>
			<point x="733.1130371094" y="11.7700195312" type="line"/>
		</contour>
	</outline>
	<anchor name="bottom" x="1051" y="0"/>
	<anchor name="top" x="1051" y="1500"/>
</glyph>
<glyph name="Z" format="2">
	<unicode hex="005A"/>
	<advance width="1127"/>
	<outline>
		<contour>
			<point x="76.4348144531" y="0" type="line"/>
			<point x="43.5642089844" y="100.1279296875" type="line"/>
			<point x="808.4609375" y="1365.7114257812" type="line"/>
			<point x="803.4609375" y="1378.7114257812" type="line"/>
			<point x="302.1857910156" y="1378.7114257812" type="line"/>
			<point x="201.7678222656" y="1005.9497070312" type="line"/>
			<point x="96.1712646484" y="1005.9497070312" type="line"/>
			<point x="96.1712646484" y="1500" type="line"/>
			<point x="1010.5240478516" y="1500" type="line"/>
			<point x="1010.5240478516" y="1390.2592773438" type="line"/>
			<point x="253.3800048828" y="143.1274414062" type="line"/>
			<point x="259.3800048828" y="116.1274414062" type="line"/>
			<point x="872.6393432617" y="116.1274414062" type="line"/>
			<point x="975.3322143555" y="487.7622070312" type="line"/>
			<point x="1083.6443481445" y="487.7622070312" type="line"/>
			<point x="1054.668762207" y="0" type="line"/>
		</contour>
	</outline>
	<anchor name="bottom" x="583" y="0"/>
	<anchor name="top" x="583" y="1500"/>
	<anchor name="_liga" x="0" y="0"/>
</glyph>
<glyph name="a" format="2">
	<unicode hex="0061"/>
	<advance width="988"/>
	<outline>
		<contour>
			<point x="32.326171875" y="253.0004882812" type="qcurve" smooth="yes"/>
			<point x="32.326171875" y="398.0007324219"/>
			<point x="374.1167602539" y="561.7303466797"/>
			<point x="646.5826416016" y="626.5270996094" type="qcurve"/>
			<point x="649.5826416016" y="557.1798095703" type="line"/>
			<point x="443.8747558594" y="514.948425293"/>
			<point x="208.2694091797" y="387.4155883789"/>
			<point x="210.2694091797" y="297.0819091797" type="qcurve" smooth="yes"/>
			<point x="211.2694091797" y="190.3412475586"/>
			<point x="289.7399902344" y="104.5852050781"/>
			<point x="355.8792724609" y="104.5852050781" type="qcurve" smooth="yes"/>
			<point x="431.7671508789" y="104.5852050781"/>
			<point x="594.956237793" y="201.22265625"/>
			<point x="603.5972290039" y="243.6597900391" type="qcurve"/>
			<point x="606.1898193359" y="530.8687744141" type="line" smooth="yes"/>
			<point x="608.1898193359" y="775.8059082031"/>
			<point x="519.8501586914" y="903.7184448242"/>
			<point x="426.7972412109" y="903.7184448242" type="qcurve" smooth="yes"/>
			<point x="345.8270874023" y="903.7184448242"/>
			<point x="255.0077514648" y="878.7754516602"/>
			<point x="270.8720092773" y="889.7751464844" type="qcurve"/>
			<point x="284.4716186523" y="868.0793457031"/>
			<point x="331.9509277344" y="812.5403442383"/>
			<point x="337.0657348633" y="769.1367797852" type="qcurve" smooth="yes"/>
			<point x="346.2842407227" y="723.0460205078"/>
			<point x="274.6560058594" y="666.3734130859"/>
			<point x="229.7289428711" y="661.3734130859" type="qcurve" smooth="yes"/>
			<point x="190.5474243164" y="656.3734130859"/>
			<point x="118.5357666016" y="726.1951293945"/>
			<point x="118.5357666016" y="789.8677368164" type="qcurve" smooth="yes"/>
			<point x="118.5357666016" y="893.3075561523"/>
			<point x="277.2656860352" y="1020.7169189453"/>
			<point x="425.568359375" y="1020.7169189453" type="qcurve" smooth="yes"/>
			<point x="584.2435302734" y="1020.7169189453"/>
			<point x="766.2746582031" y="848.8440551758"/>
			<point x="769.2746582031" y="643.6653442383" type="qcurve" smooth="yes"/>
			<point x="778.2746582031" y="116" type="line"/>
			<point x="922.1505126953" y="81" type="line"/>
			<point x="922.1505126953" y="0" type="line"/>
			<point x="639.5826416016" y="0" type="line"/>
			<point x="613.5826416016" y="28" type="line"/>
			<point x="611.294128418" y="95.0003051758" type="line"/>
			<point x="584.4570922852" y="49.58203125"/>
			<point x="366.5673828125" y="-10.1149902344"/>
			<point x="232.5360107422" y="-11.1149902344" type="qcurve" smooth="yes"/>
			<point x="168.2554321289" y="-12.1149902344"/>
			<point x="32.326171875" y="110.5236206055"/>
		</contour>
	</outline>
	<anchor name="bottom" x="548" y="0"/>
	<anchor name="ogonek" x="878" y="0"/>
	<anchor name="top" x="514" y="1000"/>
</glyph>
<glyph name="b" format="2">
	<unicode hex="0062"/>
	<advance width="1182"/>
	<outline>
		<contour>
			<point x="182.2463378906" y="-2" type="line"/>
			<point x="190.2463378906" y="477" type="line"/>
			<point x="183.2317504883" y="1394.5012207031" type="line"/>
			<point x="36.8966674805" y="1434.5012207031" type="line"/>
			<point x="36.8966674805" y="1522.0012207031" type="line"/>
			<point x="289.8038330078" y="1532.0778808594" type="line"/>
			<point x="316.8038330078" y="1530.0778808594" type="line"/>
			<point x="365.8038330078" y="1485.0778808594" type="line"/>
			<point x="367.8038330078" y="877.8016357422" type="line"/>
			<point x="368.0602416992" y="931.8439331055"/>
			<point x="544.8031616211" y="1017.7169189453"/>
			<point x="680.1729736328" y="1017.7169189453" type="qcurve" smooth="yes"/>
			<point x="852.8693237305" y="1017.7169189453"/>
			<point x="1112.4424438477" y="770.2627563477"/>
			<point x="1112.4424438477" y="533.6201782227" type="qcurve" smooth="yes"/>
			<point x="1112.4424438477" y="270.5737304688"/>
			<point x="876.6746826172" y="-9.4881591797"/>
			<point x="647.785949707" y="-9.4881591797" type="qcurve" smooth="yes"/>
			<point x="515.6447143555" y="-9.4881591797"/>
			<point x="359.0612792969" y="59.4654541016"/>
			<point x="330.6810913086" y="98.1482543945" type="qcurve"/>
			<point x="233.7182006836" y="-2" type="line"/>
		</contour>
		<contour>
			<point x="371.8038330078" y="393.0161743164" type="line"/>
			<point x="368.8779296875" y="247.5286254883" type="line"/>
			<point x="393.2313232422" y="188.0679931641"/>
			<point x="559.7933349609" y="103.5745849609"/>
			<point x="643.087890625" y="103.5745849609" type="qcurve" smooth="yes"/>
			<point x="786.3256835938" y="103.5745849609"/>
			<point x="959.0162353516" y="354.0018310547"/>
			<point x="959.0162353516" y="481.8201293945" type="qcurve" smooth="yes"/>
			<point x="959.0162353516" y="616.0760498047"/>
			<point x="808.1688232422" y="854.1258544922"/>
			<point x="662.2186889648" y="854.1258544922" type="qcurve" smooth="yes"/>
			<point x="552.3116455078" y="854.1258544922"/>
			<point x="402.5797729492" y="800.7287597656"/>
			<point x="365.8038330078" y="754.6614379883" type="qcurve"/>
		</contour>
	</outline>
	<anchor name="bottom" x="571" y="0"/>
	<anchor name="top" x="571" y="1533"/>
</glyph>
<glyph name="c" format="2">
	<unicode hex="0063"/>
	<advance width="975"/>
	<outline>
		<contour>
			<point x="63.9986572266" y="481.7315673828" type="qcurve" smooth="yes"/>
			<point x="63.9986572266" y="749.493347168"/>
			<point x="360.0182495117" y="1023.4708251953"/>
			<point x="564.8918457031" y="1023.4708251953" type="qcurve" smooth="yes"/>
			<point x="675.6696166992" y="1023.4708251953"/>
			<point x="729.4893798828" y="977.1845703125"/>
			<point x="771.7154541016" y="942.9283447266" type="qcurve"/>
			<point x="810.8562011719" y="1006.2960205078" type="line"/>
			<point x="896.2398071289" y="1006.2960205078" type="line"/>
			<point x="896.2398071289" y="642.5243530273" type="line"/>
			<point x="789.4962158203" y="642.5243530273" type="line"/>
			<point x="754.9481201172" y="735.1127319336" type="line" smooth="yes"/>
			<point x="722.8844604492" y="820.0017089844"/>
			<point x="616.7768554688" y="895.5817260742"/>
			<point x="541.3959350586" y="895.5817260742" type="qcurve" smooth="yes"/>
			<point x="367.7463989258" y="895.5817260742"/>
			<point x="247.5123901367" y="662.0323486328"/>
			<point x="247.5123901367" y="508.1970825195" type="qcurve" smooth="yes"/>
			<point x="247.5123901367" y="326.2575073242"/>
			<point x="364.8399658203" y="138.8864746094"/>
			<point x="539.7053833008" y="138.8864746094" type="qcurve" smooth="yes"/>
			<point x="656.0279541016" y="138.8864746094"/>
			<point x="829.4447631836" y="216.1853637695"/>
			<point x="891.0504760742" y="283.1853027344" type="qcurve"/>
			<point x="966.4216918945" y="196" type="line"/>
			<point x="882.8870239258" y="102"/>
			<point x="697.2575683594" y="-21.0766601562"/>
			<point x="547.7670288086" y="-21.0766601562" type="qcurve" smooth="yes"/>
			<point x="345.0931396484" y="-21.0766601562"/>
			<point x="63.9986572266" y="260.4896850586"/>
		</contour>
	</outline>
	<anchor name="bottom" x="563" y="0"/>
	<anchor name="top" x="534" y="1000"/>
</glyph>
<glyph name="d" format="2">
	<unicode hex="0064"/>
	<advance width="1198"/>
	<outline>
		<contour>
			<point x="67.2430419922" y="484.6787719727" type="qcurve" smooth="yes"/>
			<point x="67.2430419922" y="735.5344848633"/>
			<point x="339.752746582" y="1028.5015869141"/>
			<point x="572.5813598633" y="1028.5015869141" type="qcurve" smooth="yes"/>
			<point x="647.5838012695" y="1028.5015869141"/>
			<point x="795.2216186523" y="976.7216186523"/>
			<point x="812.3971557617" y="953.0017700195" type="qcurve"/>
			<point x="808.5259399414" y="1395.5012207031" type="line"/>
			<point x="644.1908569336" y="1434.5012207031" type="line"/>
			<point x="644.1908569336" y="1522.0012207031" type="line"/>
			<point x="938.3418579102" y="1530.0778808594" type="line"/>
			<point x="968.3418579102" y="1529.0778808594" type="line"/>
			<point x="991.4180297852" y="1482.0778808594" type="line"/>
			<point x="988.4180297852" y="500.0370483398" type="line"/>
			<point x="997.4180297852" y="116" type="line"/>
			<point x="1146.5912475586" y="81" type="line"/>
			<point x="1146.5912475586" y="0" type="line"/>
			<point x="862.6221313477" y="0" type="line"/>
			<point x="835.512512207" y="27" type="line"/>
			<point x="821.299987793" y="110.8002929688" type="line"/>
			<point x="784.6439208984" y="62.7396240234"/>
			<point x="635.954284668" y="-8.4881591797"/>
			<point x="512.3617553711" y="-8.4881591797" type="qcurve" smooth="yes"/>
			<point x="341.1315917969" y="-8.4881591797"/>
			<point x="67.2430419922" y="240.009765625"/>
		</contour>
		<contour>
			<point x="247.3240356445" y="511.8009643555" type="qcurve" smooth="yes"/>
			<point x="247.3240356445" y="316.387878418"/>
			<point x="407.5114746094" y="100.9373168945"/>
			<point x="530.1022949219" y="100.5299072266" type="qcurve" smooth="yes"/>
			<point x="634.8590087891" y="100.1224975586"/>
			<point x="795.0766601562" y="195.1521606445"/>
			<point x="846.948059082" y="271.1246337891" type="qcurve"/>
			<point x="845.2769165039" y="526.2009887695" type="line"/>
			<point x="841.2769165039" y="779.2964477539" type="line"/>
			<point x="808.3806152344" y="829.2429199219"/>
			<point x="674.4533081055" y="912.1502075195"/>
			<point x="580.842590332" y="912.1502075195" type="qcurve" smooth="yes"/>
			<point x="429.3104858398" y="912.1502075195"/>
			<point x="247.3240356445" y="673.155456543"/>
		</contour>
	</outline>
	<anchor name="bottom" x="604" y="0"/>
	<anchor name="center" x="876" y="1202"/>
	<anchor name="top" x="604" y="1534"/>
	<anchor name="topright" x="961" y="1000"/>
	<anchor name="liga" x="1207" y="0"/>
</glyph>
<glyph name="e" format="2">
	<unicode hex="0065"/>
	<advance width="947"/>
	<outline>
		<contour>
			<point x="64.6875610352" y="511.1645507812" type="qcurve" smooth="yes"/>
			<point x="64.6875610352" y="754.4172973633"/>
			<point x="308.783996582" y="1022.8746337891"/>
			<point x="500.9995727539" y="1022.8746337891" type="qcurve" smooth="yes"/>
			<point x="693.3456420898" y="1022.8746337891"/>
			<point x="919.7268066406" y="780.8436279297"/>
			<point x="931.6073608398" y="571.2163696289" type="qcurve"/>
			<point x="932.3237304688" y="495.8157958984" type="line"/>
			<point x="209.4816894531" y="495.8157958984" type="line"/>
			<point x="208.7653198242" y="597.7418823242" type="line"/>
			<point x="754.1653442383" y="597.7418823242" type="line"/>
			<point x="749.6239624023" y="710.1111450195"/>
			<point x="613.4379882812" y="912.5040283203"/>
			<point x="493.1335449219" y="912.5040283203" type="qcurve" smooth="yes"/>
			<point x="373.9638671875" y="912.5040283203"/>
			<point x="249.823059082" y="723.444152832"/>
			<point x="250.23046875" y="521.0008544922" type="qcurve" smooth="yes"/>
			<point x="250.637878418" y="357.3355102539"/>
			<point x="387.8493041992" y="134.0126342773"/>
			<point x="550.5591430664" y="134.0126342773" type="qcurve" smooth="yes"/>
			<point x="634.9159545898" y="134.0126342773"/>
			<point x="821.1173095703" y="246.6065063477"/>
			<point x="857.6653442383" y="313.7778930664" type="qcurve"/>
			<point x="915.467590332" y="234" type="line"/>
			<point x="905.7183227539" y="139.1770019531"/>
			<point x="677.9908447266" y="-23.4689941406"/>
			<point x="551.1950683594" y="-23.4689941406" type="qcurve" smooth="yes"/>
			<point x="353.153503418" y="-23.4689941406"/>
			<point x="64.6875610352" y="270.4790649414"/>
		</contour>
	</outline>
	<anchor name="bottom" x="578" y="0"/>
	<anchor name="ogonek" x="744" y="0"/>
	<anchor name="top" x="539" y="1000"/>
</glyph>
<glyph name="f" format="2">
	<unicode hex="0066"/>
	<advance width="666"/>
	<outline>
		<contour>
			<point x="81.664855957" y="0" type="line"/>
			<point x="81.664855957" y="81" type="line"/>
			<point x="221.1755981445" y="116" type="line"/>
			<point x="231.1755981445" y="502" type="line"/>
			<point x="231.1755981445" y="826.4755249023" type="line"/>
			<point x="79.5095214844" y="849.4755249023" type="line"/>
			<point x="79.5095214844" y="962.3646240234" type="line"/>
			<point x="231.1755981445" y="978.3646240234" type="line"/>
			<point x="223.1755981445" y="1266.6095581055" type="line" smooth="yes"/>
			<point x="214.8107910156" y="1392.4928588867"/>
			<point x="342.9389648438" y="1522.3323974609"/>
			<point x="444.9420166016" y="1522.3323974609" type="qcurve" smooth="yes"/>
			<point x="507.0174560547" y="1522.3323974609"/>
			<point x="576.2559814453" y="1485.5012207031"/>
			<point x="605.7316894531" y="1467.866027832" type="qcurve" smooth="yes"/>
			<point x="611.3696289062" y="1458.0823974609" type="line"/>
			<point x="609.8620605469" y="1337.4592895508" type="line"/>
			<point x="593.5388183594" y="1342.8323974609" type="line" smooth="yes"/>
			<point x="578.8734130859" y="1351.0823974609"/>
			<point x="518.2155761719" y="1367.8323974609"/>
			<point x="484.9693603516" y="1367.8323974609" type="qcurve" smooth="yes"/>
			<point x="440.4036865234" y="1367.8323974609"/>
			<point x="388.1390991211" y="1340.7055053711"/>
			<point x="390.3765258789" y="1317.1133422852" type="qcurve" smooth="yes"/>
			<point x="385.3765258789" y="968.3646240234" type="line"/>
			<point x="607.5198974609" y="968.3646240234" type="line"/>
			<point x="607.5198974609" y="846.4755249023" type="line"/>
			<point x="385.3765258789" y="844.4755249023" type="line"/>
			<point x="383.3765258789" y="502" type="line"/>
			<point x="385.3765258789" y="116" type="line"/>
			<point x="565.7517700195" y="81" type="line"/>
			<point x="565.7517700195" y="0" type="line"/>
		</contour>
	</outline>
	<anchor name="bottom" x="314" y="0"/>
	<anchor name="top" x="314" y="1536"/>
</glyph>
<glyph name="g" format="2">
	<unicode hex="0067"/>
	<advance width="927"/>
	<outline>
		<contour>
			<point x="44.6126098633" y="-225.0775756836" type="qcurve" smooth="yes"/>
			<point x="44.6126098633" y="-140.9992675781"/>
			<point x="162.1196289062" y="-7.9250488281"/>
			<point x="255.614074707" y="64.7358398438" type="qcurve"/>
			<point x="360.1649780273" y="34.8611450195" type="line"/>
			<point x="219.2498779297" y="-53.3726806641"/>
			<point x="139.2041625977" y="-186.6851806641"/>
			<point x="139.2041625977" y="-242.6320800781" type="qcurve" smooth="yes"/>
			<point x="139.2041625977" y="-338.2584838867"/>
			<point x="259.2662963867" y="-401.2860107422"/>
			<point x="474.7144165039" y="-401.2860107422" type="qcurve" smooth="yes"/>
			<point x="658.389465332" y="-401.2860107422"/>
			<point x="855.1748046875" y="-319.6522216797"/>
			<point x="855.1748046875" y="-227.2003173828" type="qcurve" smooth="yes"/>
			<point x="855.1748046875" y="-148.9693603516"/>
			<point x="660.4638671875" y="-73.6118774414"/>
			<point x="434.2436523438" y="-44.0336914062" type="qcurve" smooth="yes"/>
			<point x="230.6290893555" y="-16.7656860352"/>
			<point x="40.6571655273" y="74.6760864258"/>
			<point x="40.6571655273" y="152.7730712891" type="qcurve" smooth="yes"/>
			<point x="40.6571655273" y="228.0741321195"/>
			<point x="200.344273721" y="343.2855953094"/>
			<point x="282.3454589844" y="359.014831543" type="qcurve"/>
			<point x="300.4476928711" y="311.2471923828" type="line"/>
			<point x="231.7344813193" y="282.0807101342"/>
			<point x="125.2892456055" y="231.7775366999"/>
			<point x="125.2892456055" y="177.2407836914" type="qcurve" smooth="yes"/>
			<point x="125.2892456055" y="139.2281494141"/>
			<point x="306.0426025391" y="131.5897827148"/>
			<point x="491.2100830078" y="103.6453857422" type="qcurve" smooth="yes"/>
			<point x="740.1858520508" y="68.5474853516"/>
			<point x="974.3109130859" y="-15.7904052734"/>
			<point x="973.594543457" y="-167.1552734375" type="qcurve" smooth="yes"/>
			<point x="972.8781738281" y="-311.3990478516"/>
			<point x="720.9677124023" y="-483.3232421875"/>
			<point x="466.9356079102" y="-483.3232421875" type="qcurve" smooth="yes"/>
			<point x="259.3408813477" y="-483.3232421875"/>
			<point x="44.6126098633" y="-347.0762939453"/>
		</contour>
		<contour>
			<point x="67.958984375" y="643.2555541992" type="qcurve" smooth="yes"/>
			<point x="67.958984375" y="830.7070922852"/>
			<point x="262.5979614258" y="1016.3052978516"/>
			<point x="440.0045776367" y="1016.3052978516" type="qcurve" smooth="yes"/>
			<point x="633.6040649414" y="1016.3052978516"/>
			<point x="835.3651123047" y="832.7070922852"/>
			<point x="836.3651123047" y="648.4555664062" type="qcurve" smooth="yes"/>
			<point x="838.3651123047" y="463.0040283203"/>
			<point x="639.6923828125" y="220.8092041016"/>
			<point x="454.4700927734" y="220.8092041016" type="qcurve" smooth="yes"/>
			<point x="269.6987304688" y="220.8092041016"/>
			<point x="67.958984375" y="455.0040283203"/>
		</contour>
		<contour>
			<point x="245.3025512695" y="657.1309204102" type="qcurve" smooth="yes"/>
			<point x="245.3025512695" y="515.3651733398"/>
			<point x="366.7988891602" y="314.5131225586"/>
			<point x="469.2711791992" y="314.5131225586" type="qcurve" smooth="yes"/>
			<point x="562.0374145508" y="314.5131225586"/>
			<point x="664.5888061523" y="512.4899291992"/>
			<point x="664.5888061523" y="652.2556762695" type="qcurve" smooth="yes"/>
			<point x="664.5888061523" y="788.0214233398"/>
			<point x="537.2020874023" y="915.7124633789"/>
			<point x="440.7297973633" y="915.7124633789" type="qcurve" smooth="yes"/>
			<point x="350.5518188477" y="915.7124633789"/>
			<point x="245.3025512695" y="784.8966674805"/>
		</contour>
		<contour>
			<point x="491.3438110352" y="887.6333007812" type="line"/>
			<point x="500.9221801758" y="978.6018066406" type="line"/>
			<point x="909.3207397461" y="981.6018066406" type="line"/>
			<point x="909.3207397461" y="852.4164428711" type="line"/>
		</contour>
	</outline>
	<anchor name="bottom" x="524" y="-416"/>
	<anchor name="top" x="484" y="1000"/>
</glyph>
<glyph name="h" format="2">
	<unicode hex="0068"/>
	<advance width="1209"/>
	<outline>
		<contour>
			<point x="65.7290039062" y="0" type="line"/>
			<point x="65.7290039062" y="81" type="line"/>
			<point x="218.6726074219" y="116" type="line"/>
			<point x="220.6726074219" y="513.801940918" type="line"/>
			<point x="210.6726074219" y="1393.5012207031" type="line"/>
			<point x="65.5131835938" y="1434.5012207031" type="line"/>
			<point x="65.5131835938" y="1522.0012207031" type="line"/>
			<point x="320.6628417969" y="1530.0778808594" type="line"/>
			<point x="355.6628417969" y="1529.0778808594" type="line"/>
			<point x="396.6628417969" y="1483.0778808594" type="line"/>
			<point x="389.6628417969" y="859.4116210938" type="line"/>
			<point x="426.5303955078" y="920.0633544922"/>
			<point x="594.7989501953" y="1016.9014892578"/>
			<point x="703.3946533203" y="1016.9014892578" type="qcurve" smooth="yes"/>
			<point x="857.1444702148" y="1016.9014892578"/>
			<point x="992.1918334961" y="868.5163574219"/>
			<point x="992.1918334961" y="786.272644043" type="qcurve" smooth="yes"/>
			<point x="992.1918334961" y="696.9456787109"/>
			<point x="992.1918334961" y="543.4033813477"/>
			<point x="992.1918334961" y="512.801940918" type="qcurve" smooth="yes"/>
			<point x="998.1918334961" y="116" type="line"/>
			<point x="1145.1893920898" y="81" type="line"/>
			<point x="1145.1893920898" y="0" type="line"/>
			<point x="710.4474487305" y="0" type="line"/>
			<point x="710.4474487305" y="81" type="line"/>
			<point x="817.2015991211" y="116" type="line"/>
			<point x="821.2015991211" y="456.5054321289" type="line"/>
			<point x="818.2015991211" y="712.8228759766" type="line" smooth="yes"/>
			<point x="817.2015991211" y="803.4951782227"/>
			<point x="726.4029541016" y="869.9513549805"/>
			<point x="641.2576904297" y="869.9513549805" type="qcurve" smooth="yes"/>
			<point x="562.7424926758" y="869.9513549805"/>
			<point x="426.0162353516" y="804.5648803711"/>
			<point x="390.4666748047" y="739.7512817383" type="qcurve"/>
			<point x="386.6628417969" y="461.6019287109" type="line"/>
			<point x="389.6628417969" y="116" type="line"/>
			<point x="517.9038085938" y="81" type="line"/>
			<point x="517.9038085938" y="0" type="line"/>
		</contour>
	</outline>
	<anchor name="bottom" x="629" y="0"/>
	<anchor name="center" x="347" y="1202"/>
	<anchor name="top" x="304" y="1534"/>
</glyph>
<glyph name="k" format="2">
	<unicode hex="006B"/>
	<advance width="941"/>
	<outline>
		<contour>
			<point x="73.3615722656" y="0" type="line"/>
			<point x="73.3615722656" y="81" type="line"/>
			<point x="228.3051757812" y="116" type="line"/>
			<point x="230.3051757812" y="482" type="line"/>
			<point x="228.3051757812" y="1394.5012207031" type="line"/>
			<point x="75.1457519531" y="1434.5012207031" type="line"/>
			<point x="75.1457519531" y="1518.4880371094" type="line"/>
			<point x="321.9971923828" y="1530.0778808594" type="line"/>
			<point x="346.9971923828" y="1529.0778808594" type="line"/>
			<point x="394.9971923828" y="1483.0778808594" type="line"/>
			<point x="397.9971923828" y="516" type="line"/>
			<point x="394.9971923828" y="116" type="line"/>
			<point x="521.2381591797" y="81" type="line"/>
			<point x="521.2381591797" y="0" type="line"/>
		</contour>
		<contour>
			<point x="328.4769287109" y="393.7686157227" type="line"/>
			<point x="289.1787109375" y="472.9701538086" type="line"/>
			<point x="635.6328125" y="874.1018066406" type="line"/>
			<point x="513.8109130859" y="904.1018066406" type="line"/>
			<point x="513.8109130859" y="999.6018066406" type="line"/>
			<point x="939.4351806641" y="999.6018066406" type="line"/>
			<point x="939.4351806641" y="904.1018066406" type="line"/>
			<point x="771.6810302734" y="874.1018066406" type="line"/>
		</contour>
		<contour>
			<point x="472.0746459961" y="566.0114135742" type="line"/>
			<point x="563.6358032227" y="733.0540161133" type="line"/>
			<point x="895.8565063477" y="118" type="line"/>
			<point x="995.4901733398" y="81" type="line"/>
			<point x="995.4901733398" y="0" type="line"/>
			<point x="704.413269043" y="0" type="line"/>
			<point x="695.3053588867" y="61.0072021484" type="line"/>
			<point x="709.413269043" y="108.75" type="line"/>
		</contour>
	</outline>
	<anchor name="bottom" x="608" y="0"/>
	<anchor name="top" x="578" y="1534"/>
</glyph>
<glyph name="m" format="2">
	<unicode hex="006D"/>
	<advance width="1794"/>
	<outline>
		<contour>
			<point x="75.4504394531" y="0" type="line"/>
			<point x="75.4504394531" y="81" type="line"/>
			<point x="224.4479980469" y="116" type="line"/>
			<point x="228.4479980469" y="588.801940918" type="line"/>
			<point x="224.4479980469" y="851.1018066406" type="line"/>
			<point x="75.4504394531" y="886.1018066406" type="line"/>
			<point x="75.4504394531" y="972.6018066406" type="line"/>
			<point x="354.721862793" y="1010.6784667969" type="line"/>
			<point x="373.721862793" y="999.6784667969" type="line"/>
			<point x="378.721862793" y="857.6018066406" type="line"/>
			<point x="419.2406616211" y="932.6018066406"/>
			<point x="587.5883178711" y="1017.3052978516"/>
			<point x="713.3566894531" y="1017.3052978516" type="qcurve" smooth="yes"/>
			<point x="855.8500366211" y="1017.3052978516"/>
			<point x="965.1119384766" y="925.8978881836"/>
			<point x="976.8598632812" y="870.3636474609" type="qcurve"/>
			<point x="1014.7094726562" y="926.4534301758"/>
			<point x="1199.2881469727" y="1017.3052978516"/>
			<point x="1306.7984619141" y="1017.3052978516" type="qcurve" smooth="yes"/>
			<point x="1444.8270263672" y="1017.3052978516"/>
			<point x="1569.2384643555" y="874.3052978516"/>
			<point x="1569.2384643555" y="766.3052978516" type="qcurve" smooth="yes"/>
			<point x="1568.2384643555" y="703.9053344727"/>
			<point x="1571.1548461914" y="504.6019287109"/>
			<point x="1570.9548339844" y="532.801940918" type="qcurve" smooth="yes"/>
			<point x="1576.9548339844" y="115" type="line"/>
			<point x="1729.9523925781" y="81" type="line"/>
			<point x="1729.9523925781" y="0" type="line"/>
			<point x="1310.5086669922" y="0" type="line"/>
			<point x="1310.5086669922" y="81" type="line"/>
			<point x="1403.2628173828" y="116" type="line"/>
			<point x="1406.2628173828" y="490.801940918" type="line"/>
			<point x="1409.3661499023" y="708.1798095703" type="line" smooth="yes"/>
			<point x="1410.6889648438" y="800.1798095703"/>
			<point x="1324.3343505859" y="875.1798095703"/>
			<point x="1247.0172119141" y="875.1798095703" type="qcurve" smooth="yes"/>
			<point x="1174.602722168" y="875.1798095703"/>
			<point x="1013.4076538086" y="803.8208618164"/>
			<point x="980.1393432617" y="756.3362426758" type="qcurve"/>
			<point x="983.3085327148" y="790.0512084961"/>
			<point x="981.567199707" y="478.6019287109"/>
			<point x="980.8508300781" y="495.801940918" type="qcurve" smooth="yes"/>
			<point x="983.8508300781" y="116" type="line"/>
			<point x="1088.8483886719" y="81" type="line"/>
			<point x="1088.8483886719" y="0" type="line"/>
			<point x="711.9719238281" y="0" type="line"/>
			<point x="711.9719238281" y="81" type="line"/>
			<point x="814.7260742188" y="116" type="line"/>
			<point x="816.7260742188" y="556.801940918" type="line"/>
			<point x="816.7260742188" y="741.1798095703" type="line" smooth="yes"/>
			<point x="816.7260742188" y="816.1798095703"/>
			<point x="745.1359863281" y="874.1798095703"/>
			<point x="665.1576538086" y="875.1798095703" type="qcurve" smooth="yes"/>
			<point x="590.0548706055" y="876.1798095703"/>
			<point x="432.0510253906" y="805.1327514648"/>
			<point x="394.314453125" y="756.0130004883" type="qcurve"/>
			<point x="392.721862793" y="588.801940918" type="line"/>
			<point x="394.721862793" y="116" type="line"/>
			<point x="502.9628295898" y="81" type="line"/>
			<point x="502.9628295898" y="0" type="line"/>
		</contour>
	</outline>
	<anchor name="bottom" x="958" y="0"/>
	<anchor name="top" x="958" y="1000"/>
</glyph>
<glyph name="o" format="2">
	<unicode hex="006F"/>
	<advance width="1167"/>
	<outline>
		<contour>
			<point x="63.9986572266" y="500.8009643555" type="qcurve" smooth="yes"/>
			<point x="63.9986572266" y="745.3048095703"/>
			<point x="349.7639278289" y="1018.7436523438"/>
			<point x="577.9315283991" y="1018.7436523438" type="qcurve" smooth="yes"/>
			<point x="807.531868227" y="1018.7436523438"/>
			<point x="1102.6641136907" y="752.7048339844"/>
			<point x="1102.6641136907" y="506.8009643555" type="qcurve" smooth="yes"/>
			<point x="1102.6641136907" y="259.3239135742"/>
			<point x="817.0444434382" y="-19.1149902344"/>
			<point x="586.160473239" y="-19.1149902344" type="qcurve" smooth="yes"/>
			<point x="354.8326849168" y="-19.1149902344"/>
			<point x="63.9986572266" y="241.9238891602"/>
		</contour>
		<contour>
			<point x="244.2141723633" y="514.8009643555" type="qcurve" smooth="yes"/>
			<point x="244.4964304278" y="347.1520385742"/>
			<point x="427.9654363817" y="81.8482055664"/>
			<point x="578.4330247449" y="81.8482055664" type="qcurve" smooth="yes"/>
			<point x="740.041698825" y="81.8482055664"/>
			<point x="919.1503807806" y="304.5640258789"/>
			<point x="918.1503807806" y="496.8009643555" type="qcurve" smooth="yes"/>
			<point x="918.1503807806" y="672.2144165039"/>
			<point x="729.312356272" y="903.3359985352"/>
			<point x="580.7152828094" y="903.3359985352" type="qcurve" smooth="yes"/>
			<point x="418.6715776997" y="903.3359985352"/>
			<point x="244.2141723633" y="696.2730102539"/>
		</contour>
	</outline>
	<anchor name="bottom" x="584" y="0"/>
	<anchor name="center" x="584" y="500"/>
	<anchor name="ogonek" x="747" y="0"/>
	<anchor name="top" x="584" y="1000"/>
	<anchor name="topright" x="751" y="1000"/>
	<anchor name="GRKtop" x="584" y="1000"/>
	<anchor name="yu_dash" x="150" y="500"/>
</glyph>
<glyph name="q" format="2">
	<unicode hex="0071"/>
	<advance width="1205"/>
	<outline>
		<contour>
			<point x="69.7318115234" y="493.3932495117" type="qcurve" smooth="yes"/>
			<point x="69.7318115234" y="772.6358642578"/>
			<point x="358.73046875" y="1018.2862548828"/>
			<point x="563.9447631836" y="1018.2862548828" type="qcurve" smooth="yes"/>
			<point x="654.6226196289" y="1018.2862548828"/>
			<point x="820.4281616211" y="973.9526977539"/>
			<point x="820.0714111328" y="967.9693603516" type="qcurve"/>
			<point x="888.0714111328" y="1001.6785888672" type="line"/>
			<point x="1141.0713500977" y="971.6019287109" type="line"/>
			<point x="1141.0713500977" y="884.3519287109" type="line"/>
			<point x="1016.8981323242" y="866.3519287109" type="line"/>
			<point x="1014.8981323242" y="443.4008178711" type="line"/>
			<point x="1013.8981323242" y="-364.9951171875" type="line"/>
			<point x="1157.5983276367" y="-399.9951171875" type="line"/>
			<point x="1157.5983276367" y="-479.9951171875" type="line"/>
			<point x="677.1007080078" y="-479.9951171875" type="line"/>
			<point x="677.1007080078" y="-399.9951171875" type="line"/>
			<point x="838.4897460938" y="-366.9951171875" type="line"/>
			<point x="845.4897460938" y="74.2002563477" type="line"/>
			<point x="794.9193725586" y="35.3022460938"/>
			<point x="614.9622802734" y="-4.4881591797"/>
			<point x="533.6735839844" y="-4.4881591797" type="qcurve" smooth="yes"/>
			<point x="368.9362792969" y="-4.4881591797"/>
			<point x="69.7318115234" y="221.1583251953"/>
		</contour>
		<contour>
			<point x="251.9619140625" y="504.9971313477" type="qcurve" smooth="yes"/>
			<point x="251.9619140625" y="331.6800537109"/>
			<point x="427.0924072266" y="91.9733886719"/>
			<point x="566.2124023438" y="91.9733886719" type="qcurve" smooth="yes"/>
			<point x="654.2750244141" y="91.9733886719"/>
			<point x="808.0714111328" y="144.462890625"/>
			<point x="848.4897460938" y="201.1450195312" type="qcurve"/>
			<point x="849.4897460938" y="802.1484375" type="line"/>
			<point x="811.6640014648" y="860.7976074219"/>
			<point x="672.3779296875" y="911.9943847656"/>
			<point x="591.5345458984" y="911.9943847656" type="qcurve" smooth="yes"/>
			<point x="450.1793212891" y="911.9943847656"/>
			<point x="251.9619140625" y="668.1293334961"/>
		</contour>
	</outline>
	<anchor name="bottom" x="594" y="0"/>
	<anchor name="top" x="594" y="1000"/>
</glyph>
<glyph name="r" format="2">
	<unicode hex="0072"/>
	<advance width="877"/>
	<outline>
		<contour>
			<point x="78.0014648438" y="0" type="line"/>
			<point x="78.0014648438" y="81" type="line"/>
			<point x="222.9990234375" y="116" type="line"/>
			<point x="224.9990234375" y="511.6018066406" type="line"/>
			<point x="223.9990234375" y="851.1018066406" type="line"/>
			<point x="75.0014648438" y="886.1018066406" type="line"/>
			<point x="75.0014648438" y="972.6018066406" type="line"/>
			<point x="369.0330200195" y="1010.6784667969" type="line"/>
			<point x="387.5753173828" y="999.6784667969" type="line"/>
			<point x="388.7493896484" y="839.6759643555" type="line"/>
			<point x="427.33203125" y="912.6018066406"/>
			<point x="636.5244140625" y="1000.674621582"/>
			<point x="769.9220581055" y="1000.8746337891" type="qcurve" smooth="yes"/>
			<point x="839.5745239258" y="1000.8746337891" type="line"/>
			<point x="839.5745239258" y="667.9146728516" type="line"/>
			<point x="731.5713500977" y="667.9146728516" type="line"/>
			<point x="628.5346069336" y="805.2818603516" type="line"/>
			<point x="580.9672241211" y="801.2077636719"/>
			<point x="430.0442504883" y="765.4904785156"/>
			<point x="395.6910400391" y="725.5275268555" type="qcurve"/>
			<point x="393.6910400391" y="511.6018066406" type="line"/>
			<point x="395.6910400391" y="116" type="line"/>
			<point x="565.4451904297" y="81" type="line"/>
			<point x="565.4451904297" y="0" type="line"/>
		</contour>
	</outline>
	<anchor name="bottom" x="432" y="0"/>
	<anchor name="top" x="486" y="1000"/>
</glyph>
<glyph name="s" format="2">
	<unicode hex="0073"/>
	<advance width="803"/>
	<outline>
		<contour>
			<point x="34.5849989888" y="4.7058105469" type="line"/>
			<point x="34.5849989888" y="330.958984375" type="line"/>
			<point x="135.2918471334" y="330.958984375" type="line"/>
			<point x="176.2918471334" y="247.3706054688" type="line" smooth="yes"/>
			<point x="220.3004488322" y="148.9631958008"/>
			<point x="338.9777559611" y="72.4873046875"/>
			<point x="416.2912935587" y="72.4873046875" type="qcurve" smooth="yes"/>
			<point x="512.6958345743" y="72.4873046875"/>
			<point x="608.0376314493" y="154.2759399414"/>
			<point x="607.482821879" y="240.9954833984" type="qcurve" smooth="yes"/>
			<point x="606.9280123087" y="329.5137939453"/>
			<point x="475.8537935587" y="410.5983276367"/>
			<point x="333.8213228556" y="472.8457641602" type="qcurve" smooth="yes"/>
			<point x="178.1977266642" y="545.0562133789"/>
			<point x="65.7917208048" y="648.303527832"/>
			<point x="66.8927382467" y="760.0998535156" type="qcurve" smooth="yes"/>
			<point x="68.0109590861" y="872.6580810547"/>
			<point x="204.5312837931" y="1022.8746337891"/>
			<point x="343.796481547" y="1022.8746337891" type="qcurve" smooth="yes"/>
			<point x="423.8939546915" y="1022.8746337891"/>
			<point x="487.1618990275" y="986.0345458984"/>
			<point x="517.0666841837" y="962.0345458984" type="qcurve"/>
			<point x="573.0666841837" y="1018.8959960938" type="line"/>
			<point x="660.0323213908" y="1018.8959960938" type="line"/>
			<point x="660.0323213908" y="677.8650512695" type="line"/>
			<point x="556.9181246134" y="677.8650512695" type="line"/>
			<point x="537.7056001993" y="694.1697998047" type="line" smooth="yes"/>
			<point x="473.8219332072" y="819.4534301758"/>
			<point x="397.2904390665" y="925.7262573242"/>
			<point x="346.4098238322" y="925.7262573242" type="qcurve" smooth="yes"/>
			<point x="270.9169649454" y="925.7262573242"/>
			<point x="197.9030489298" y="853.3558349609"/>
			<point x="197.9030489298" y="809.6657714844" type="qcurve" smooth="yes"/>
			<point x="197.9030489298" y="753.1733398438"/>
			<point x="296.2995985982" y="675.5651855469"/>
			<point x="446.2763442037" y="608.7525634766" type="qcurve" smooth="yes"/>
			<point x="583.6977309224" y="545.5681762695"/>
			<point x="739.6698946329" y="411.2296142578"/>
			<point x="739.6698946329" y="282.8621826172" type="qcurve" smooth="yes"/>
			<point x="739.6698946329" y="143.4315185547"/>
			<point x="577.1035494181" y="-23.2536621094"/>
			<point x="458.2695650431" y="-23.2536621094" type="qcurve" smooth="yes"/>
			<point x="334.2404512736" y="-23.2536621094"/>
			<point x="194.5128511759" y="31.8508911133"/>
			<point x="168.5506361959" y="45.5672607422" type="qcurve"/>
			<point x="116.5506361959" y="4.7058105469" type="line"/>
		</contour>
	</outline>
	<anchor name="bottom" x="468" y="0"/>
	<anchor name="top" x="416" y="1000"/>
</glyph>
<glyph name="t" format="2">
	<unicode hex="0074"/>
	<advance width="592"/>
	<outline>
		<contour>
			<point x="26.958984375" y="863.4383544922" type="line"/>
			<point x="26.958984375" y="975.2532958984" type="line"/>
			<point x="180.958984375" y="993.2532958984"/>
			<point x="297.4262084961" y="1173.0015869141"/>
			<point x="349.1225585938" y="1323" type="qcurve"/>
			<point x="313.0333862305" y="1323" type="line"/>
			<point x="349.0333862305" y="1243" type="line"/>
			<point x="344.0333862305" y="977.3274536133" type="line"/>
			<point x="545.1723022461" y="977.3274536133" type="line"/>
			<point x="545.1723022461" y="862.0679931641" type="line"/>
			<point x="342.0333862305" y="862.0679931641" type="line"/>
			<point x="340.0333862305" y="526.4014892578" type="line"/>
			<point x="348.0333862305" y="253.7409057617" type="line" smooth="yes"/>
			<point x="349.0333862305" y="208.7409057617"/>
			<point x="383.0333862305" y="156.7409057617"/>
			<point x="429.1723022461" y="145.7409057617" type="qcurve" smooth="yes"/>
			<point x="549.1723022461" y="135.7409057617" type="line"/>
			<point x="549.1723022461" y="30" type="line"/>
			<point x="292.4823608398" y="-10.8804931641" type="line"/>
			<point x="235.3591918945" y="-12.8804931641"/>
			<point x="160.7595214844" y="90.403137207"/>
			<point x="162.7595214844" y="173.1195068359" type="qcurve" smooth="yes"/>
			<point x="167.7595214844" y="526.4014892578" type="line"/>
			<point x="167.7595214844" y="851.4383544922" type="line"/>
		</contour>
	</outline>
	<anchor name="bottom" x="322" y="0"/>
	<anchor name="center" x="312" y="622"/>
	<anchor name="top" x="322" y="1179"/>
	<anchor name="topright" x="540" y="1000"/>
</glyph>
<glyph name="x" format="2">
	<unicode hex="0078"/>
	<advance width="1018"/>
	<outline>
		<contour>
			<point x="-8.5477294922" y="0" type="line"/>
			<point x="-8.5477294922" y="84" type="line"/>
			<point x="140.4234619141" y="118" type="line"/>
			<point x="384.2372436523" y="457.4814453125" type="line"/>
			<point x="118.8563232422" y="869.1018066406" type="line"/>
			<point x="21.3983154297" y="904.1018066406" type="line"/>
			<point x="21.3983154297" y="999.6018066406" type="line"/>
			<point x="390.7679443359" y="999.6018066406" type="line"/>
			<point x="390.7679443359" y="904.1018066406" type="line"/>
			<point x="323.431640625" y="867.1018066406" type="line"/>
			<point x="471.2556152344" y="680.4274902344" type="line"/>
			<point x="508.7960205078" y="632.8688964844" type="line"/>
			<point x="508.7960205078" y="632.8688964844" type="line"/>
			<point x="542.4617919922" y="688.5413208008" type="line"/>
			<point x="670.0545043945" y="873.1018066406" type="line"/>
			<point x="535.258972168" y="904.1018066406" type="line"/>
			<point x="535.258972168" y="999.6018066406" type="line"/>
			<point x="982.0101318359" y="999.6018066406" type="line"/>
			<point x="982.0101318359" y="904.1018066406" type="line"/>
			<point x="839.7955322266" y="871.1018066406" type="line"/>
			<point x="605.8162231445" y="545.1995239258" type="line"/>
			<point x="902.7725830078" y="120" type="line"/>
			<point x="1024.1628417969" y="84" type="line"/>
			<point x="1024.1628417969" y="0" type="line"/>
			<point x="568.7588500977" y="0" type="line"/>
			<point x="568.7588500977" y="84" type="line"/>
			<point x="659.0951538086" y="119" type="line"/>
			<point x="516.9867553711" y="312.7078857422" type="line"/>
			<point x="481.3186035156" y="357.2551269531" type="line"/>
			<point x="481.3186035156" y="357.2551269531" type="line"/>
			<point x="453.5543823242" y="302.8764648438" type="line"/>
			<point x="325.1644897461" y="120" type="line"/>
			<point x="458.2034301758" y="84" type="line"/>
			<point x="458.2034301758" y="0" type="line"/>
		</contour>
	</outline>
	<anchor name="bottom" x="522" y="0"/>
	<anchor name="top" x="522" y="1000"/>
	<anchor name="cy_descender" x="1043" y="80"/>
</glyph>
